Coordinates
version=1
nRows=26
nColumns=24
inDegrees=yes

Units are S.I. units (second, meters, Newtons, ...)
Angles are in degrees.

endheader
time	pelvis_tilt	pelvis_list	pelvis_rotation	pelvis_tx	pelvis_ty	pelvis_tz	hip_flexion_r	hip_adduction_r	hip_rotation_r	knee_angle_r	ankle_angle_r	subtalar_angle_r	mtp_angle_r	hip_flexion_l	hip_adduction_l	hip_rotation_l	knee_angle_l	ankle_angle_l	subtalar_angle_l	mtp_angle_l	lumbar_extension	lumbar_bending	lumbar_rotation
      1.14600000	     -8.33353984	      2.08696335	     -4.14710187	      0.14401958	      0.98248354	      0.31347445	     30.91168409	     -0.55062560	     -0.52540493	    -69.55106082	     -8.79274800	      4.10570829	    -41.53800703	     19.25488139	      5.45392595	     -2.56685692	    -10.73450265	    -19.27030159	    -14.53139405	     -7.06588238	     23.18842889	     -1.48826074	      4.95832275
      1.15016667	     -8.32455489	      2.05598717	     -4.12443816	      0.14910862	      0.98306650	      0.31337747	     31.58970271	     -0.41666958	     -0.42036399	    -69.50744030	     -8.17903072	      3.73583431	    -41.54507555	     18.83259335	      5.48288937	     -2.48587275	    -10.61494139	    -19.07548944	    -14.61713316	     -7.03897555	     23.15297544	     -1.46302581	      4.88737162
      1.15433333	     -8.32005407	      2.01423137	     -4.09728909	      0.15424511	      0.98364890	      0.31327663	     32.23497822	     -0.27385370	     -0.31541692	    -69.35354276	     -7.57846317	      3.41207041	    -41.55218414	     18.40249781	      5.49903772	     -2.41467268	    -10.48405528	    -18.88727598	    -14.70065446	     -7.01345922	     23.11626005	     -1.43371422	      4.81589371
      1.15850000	     -8.32052277	      1.97824751	     -4.06886992	      0.15936323	      0.98421004	      0.31319220	     32.86244410	     -0.13741438	     -0.21146146	    -69.11740407	     -7.00229094	      3.14512435	    -41.56042539	     17.97171855	      5.52047935	     -2.33657032	    -10.33443223	    -18.70792183	    -14.78181159	     -6.98855091	     23.08240614	     -1.41477588	      4.74467586
      1.16266667	     -8.32799339	      1.93518112	     -4.03875826	      0.16449205	      0.98473998	      0.31311158	     33.46685505	      0.00476051	     -0.10906235	    -68.79012992	     -6.44960697	      2.94066188	    -41.57065541	     17.54339333	      5.53088549	     -2.26655819	    -10.17757441	    -18.53470069	    -14.85928138	     -6.96363710	     23.05505952	     -1.38821125	      4.67039237
      1.16683333	     -8.33573319	      1.89275703	     -4.00856482	      0.16960673	      0.98525606	      0.31303348	     34.04598468	      0.14366788	     -0.00524103	    -68.37653941	     -5.93649280	      2.79602696	    -41.58234882	     17.10863397	      5.54178864	     -2.18454722	    -10.00075627	    -18.37347301	    -14.93058057	     -6.93973366	     23.02780075	     -1.36307527	      4.59594420
      1.17100000	     -8.34753110	      1.84995000	     -3.97667372	      0.17473988	      0.98575503	      0.31298205	     34.59434314	      0.28307729	      0.09820320	    -67.86885017	     -5.45394210	      2.70242045	    -41.59516779	     16.67188175	      5.54936930	     -2.10049240	     -9.81467696	    -18.21819768	    -15.00164852	     -6.91701657	     23.01021714	     -1.33614111	      4.52083012
      1.17516667	     -8.36038431	      1.80755158	     -3.94563100	      0.17986591	      0.98622208	      0.31293235	     35.11693097	      0.41963599	      0.20219938	    -67.27794893	     -5.00926354	      2.65609412	    -41.60860427	     16.22965255	      5.55552508	     -2.01285106	     -9.61172730	    -18.07376514	    -15.06898876	     -6.89607949	     22.99146538	     -1.30932532	      4.44719497
      1.17933333	     -8.38021626	      1.76108596	     -3.91083017	      0.18500737	      0.98666744	      0.31289395	     35.61047837	      0.55863717	      0.30422055	    -66.59695498	     -4.58492815	      2.65551267	    -41.62417024	     15.79005786	      5.55581935	     -1.92313811	     -9.40135124	    -17.93257615	    -15.13834081	     -6.87543457	     22.97867304	     -1.27908081	      4.36914602
      1.18350000	     -8.36051230	      1.69005044	     -3.84739954	      0.19010248	      0.98716477	      0.31280255	     36.01896497	      0.69599128	      0.38305118	    -65.84509162	     -4.02102898	      2.82643421	    -41.67128787	     15.31613299	      5.53799202	     -1.82873793	     -9.21125760	    -17.75106763	    -15.21355054	     -6.83072935	     22.84465211	     -1.22941640	      4.20651908
      1.18766667	     -8.41230741	      1.66960385	     -3.83627790	      0.19522339	      0.98747241	      0.31282668	     36.49864508	      0.82171528	      0.50697366	    -64.99131515	     -3.78419722	      2.83132240	    -41.68745320	     14.90176170	      5.55536415	     -1.73460996	     -8.96605286	    -17.66651827	    -15.26239868	     -6.81690451	     22.89586187	     -1.24572634	      4.16397984
      1.19183333	     -8.45582399	      1.62285930	     -3.80886891	      0.20038469	      0.98780963	      0.31282526	     36.91884223	      0.95801081	      0.60215411	    -64.04554306	     -3.50839326	      2.88007833	    -41.70554246	     14.47367916	      5.54679108	     -1.64730010	     -8.72429268	    -17.55607235	    -15.33048059	     -6.80190251	     22.93776773	     -1.20904281	      4.10183458
      1.19600000	     -8.49745908	      1.57569647	     -3.77211836	      0.20554905	      0.98811658	      0.31284142	     37.29980896	      1.09185317	      0.69077956	    -63.01947293	     -3.24120057	      2.96230249	    -41.72575300	     14.04082635	      5.53801267	     -1.54393133	     -8.47979448	    -17.44219772	    -15.40693575	     -6.78669105	     22.96265571	     -1.17644831	      4.03201586
      1.20016667	     -8.54882559	      1.52865928	     -3.73450997	      0.21066414	      0.98836682	      0.31285321	     37.66179062	      1.22164692	      0.77485015	    -61.91032865	     -3.00407879	      3.06244324	    -41.74718051	     13.62673576	      5.52867707	     -1.44161620	     -8.23960851	    -17.33391085	    -15.48363230	     -6.77247759	     22.98601799	     -1.14409889	      3.95858481
      1.20433333	     -8.59665874	      1.47103688	     -3.69858256	      0.21581625	      0.98861147	      0.31287020	     37.97737149	      1.35727722	      0.84866542	    -60.71388530	     -2.80069116	      3.17167870	    -41.77071177	     13.19909644	      5.50826986	     -1.33560634	     -7.98918293	    -17.22771925	    -15.56904440	     -6.75877078	     23.01679921	     -1.10414433	      3.87771224
      1.20850000	     -8.65503498	      1.42239875	     -3.66392378	      0.22096484	      0.98879755	      0.31288828	     38.27421949	      1.48176012	      0.91522914	    -59.44575688	     -2.63011426	      3.26766394	    -41.79380687	     12.78414486	      5.49622138	     -1.23472088	     -7.73659420	    -17.12950499	    -15.65382406	     -6.74687049	     23.04592591	     -1.07933617	      3.80174334
      1.21266667	     -8.71525802	      1.36487122	     -3.62506364	      0.22613178	      0.98896405	      0.31291752	     38.52912143	      1.61234122	      0.97249468	    -58.08594706	     -2.49769984	      3.36172640	    -41.81969330	     12.36682051	      5.47366157	     -1.12705031	     -7.47803404	    -17.03534398	    -15.74681235	     -6.73520831	     23.08632126	     -1.03641181	      3.71519374
      1.21683333	     -8.77959309	      1.30627482	     -3.58363497	      0.23130969	      0.98909984	      0.31295483	     38.74887482	      1.73955578	      1.01755232	    -56.64475081	     -2.40174652	      3.43339348	    -41.84771500	     11.95169039	      5.45028575	     -1.01646134	     -7.21425316	    -16.94985867	    -15.84659779	     -6.72413936	     23.12169855	     -0.99628003	      3.62311919
      1.22100000	     -8.85323457	      1.24563361	     -3.54447972	      0.23648108	      0.98918157	      0.31302291	     38.94533226	      1.87146204	      1.05406859	    -55.13034857	     -2.33162399	      3.47720853	    -41.87542464	     11.54996714	      5.41915304	     -0.91157717	     -6.95850826	    -16.86795182	    -15.94937088	     -6.71442063	     23.17343447	     -0.96130695	      3.53346979
      1.22516667	     -8.93780282	      1.18635253	     -3.50706336	      0.24165405	      0.98921211	      0.31309185	     39.11972690	      1.99887399	      1.08011567	    -53.54579331	     -2.29102149	      3.49746724	    -41.90304801	     11.15928727	      5.38871417	     -0.80816073	     -6.69999741	    -16.78912371	    -16.05667595	     -6.70582118	     23.24194462	     -0.92652430	      3.44498642
      1.22933333	     -8.94411046	      1.07602035	     -3.44427860	      0.24687474	      0.98940928	      0.31307950	     39.14212686	      2.14565967	      1.05957416	    -51.81419930	     -2.46431537	      3.46940408	    -41.96067697	     10.66905741	      5.31668722	     -0.63455438	     -6.42396339	    -16.73511913	    -16.17342518	     -6.69003258	     23.11462187	     -0.71330035	      3.22785303
      1.23350000	     -9.06061398	      1.05503545	     -3.42194918	      0.25200711	      0.98927055	      0.31322876	     39.30337342	      2.24862389	      1.07846431	    -50.15247060	     -2.32714738	      3.41040354	    -41.98084185	     10.32552868	      5.31725507	     -0.59323895	     -6.17451980	    -16.65633057	    -16.27292669	     -6.68433899	     23.26375962	     -0.85850196	      3.19916938
      1.23766667	     -9.12691901	      0.94794343	     -3.36239547	      0.25729999	      0.98929989	      0.31326537	     39.31619876	      2.39581515	      1.04361188	    -48.29360006	     -2.54135420	      3.33699621	    -42.03444228	      9.89655892	      5.23901448	     -0.42974929	     -5.89918799	    -16.60157995	    -16.39571838	     -6.67248898	     23.25333071	     -0.62924223	      3.00397209
      1.24183333	     -9.20414037	      0.87523015	     -3.32511664	      0.26256795	      0.98923564	      0.31337404	     39.32763945	      2.52667841	      1.01483572	    -46.43330261	     -2.62297051	      3.21340743	    -42.08238950	      9.48783655	      5.18831407	     -0.32863539	     -5.63130663	    -16.53262450	    -16.50667067	     -6.66207961	     23.32357734	     -0.60270072	      2.86244182
      1.24600000	     -9.30159606	      0.81015410	     -3.28018474	      0.26782124	      0.98908738	      0.31348632	     39.33212177	      2.64577892	      0.98404985	    -44.53197876	     -2.68936743	      3.12257417	    -42.12538916	      9.10847238	      5.14581419	     -0.22996866	     -5.37490226	    -16.46589450	    -16.62278730	     -6.65397090	     23.40627161	     -0.56881207	      2.74326186
      1.25016667	     -9.41196254	      0.74607653	     -3.23677485	      0.27312208	      0.98888774	      0.31358067	     39.31591148	      2.75826329	      0.93647762	    -42.58458328	     -2.76414773	      3.04727731	    -42.16562411	      8.74107562	      5.10422259	     -0.13598211	     -5.11955815	    -16.39664402	    -16.73113341	     -6.64778216	     23.51070604	     -0.52289890	      2.63066328
